<svg version="1.1" xmlns="http://www.w3.org/2000/svg" xmlns:xlink="http://www.w3.org/1999/xlink" width="800" height="600"><g fill="#181919" fill-rule="nonzero" stroke="none" stroke-width="1" stroke-linecap="butt" stroke-linejoin="miter" stroke-miterlimit="10" stroke-dasharray="" stroke-dashoffset="0" font-family="none" font-weight="none" font-size="none" text-anchor="none" style="mix-blend-mode: normal"><rect x="0" y="0" width="800" height="600"/></g><g fill="none" fill-rule="nonzero" stroke="#ffffff" stroke-width="12" stroke-linecap="round" stroke-linejoin="miter" stroke-miterlimit="10" stroke-dasharray="" stroke-dashoffset="0" font-family="none" font-weight="none" font-size="none" text-anchor="none" style="mix-blend-mode: normal"><g id="Snowflake"><g><line x1="400" y1="300" x2="400" y2="500"/><polyline points="389.8044,371.76447 400,361.56886 410.1956,371.76447"/><polyline points="337.0119,464.82738 400,401.83929 462.9881,464.82738"/></g><g><line x1="400" y1="300" x2="226.79492" y2="400"/><polyline points="332.75235,327.05258 346.6798,330.78443 342.94795,344.71189"/><polyline points="225.76125,327.8644 311.80459,350.91964 288.74935,436.96298"/></g><g><line x1="400" y1="300" x2="226.79492" y2="200"/><polyline points="342.94795,255.28811 346.6798,269.21557 332.75235,272.94742"/><polyline points="288.74935,163.03702 311.80459,249.08036 225.76125,272.1356"/></g><g><line x1="400" y1="300" x2="400" y2="100"/><polyline points="410.1956,228.23553 400,238.43114 389.8044,228.23553"/><polyline points="462.9881,135.17262 400,198.16071 337.0119,135.17262"/></g><g><line x1="400" y1="300" x2="573.20508" y2="200"/><polyline points="467.24765,272.94742 453.3202,269.21557 457.05205,255.28811"/><polyline points="574.23875,272.1356 488.19541,249.08036 511.25065,163.03702"/></g><g><line x1="400" y1="300" x2="573.20508" y2="400"/><polyline points="457.05205,344.71189 453.3202,330.78443 467.24765,327.05258"/><polyline points="511.25065,436.96298 488.19541,350.91964 574.23875,327.8644"/></g></g></g><g fill="none" fill-rule="nonzero" stroke="none" stroke-width="1" stroke-linecap="butt" stroke-linejoin="miter" stroke-miterlimit="10" stroke-dasharray="" stroke-dashoffset="0" font-family="sans-serif" font-weight="normal" font-size="12" text-anchor="start" style="mix-blend-mode: normal"/></svg>